<?xml version="1.0" encoding="UTF-8"?>
<svg width="403px" height="396px" viewBox="0 0 403 396" version="1.1" xmlns="http://www.w3.org/2000/svg" xmlns:xlink="http://www.w3.org/1999/xlink">
    <!-- Generator: Sketch 53.2 (72643) - https://sketchapp.com -->
    <title>car</title>
    <desc>Created with Sketch.</desc>
    <g id="Page-1" stroke="none" stroke-width="1" fill="none" fill-rule="evenodd">
        <g id="car" fill="#0AAF9B" fill-rule="nonzero">
            <path d="M76.182,330.764 C58.177,330.764 43.582,345.36 43.582,363.364 C43.582,381.368 58.178,395.964 76.182,395.964 C94.179,395.946 108.764,381.361 108.782,363.364 C108.782,345.36 94.187,330.764 76.182,330.764 Z" id="Path"></path>
            <path d="M321.764,330.764 C303.759,330.764 289.164,345.36 289.164,363.364 C289.164,381.369 303.76,395.964 321.764,395.964 L321.767,395.964 C339.763,395.944 354.346,381.36 354.364,363.364 C354.364,345.36 339.769,330.764 321.764,330.764 Z" id="Path"></path>
            <path d="M389.543,287.682 L352.036,270.608 C350.602,269.934 349.397,268.857 348.566,267.508 L316.244,215.782 C310.427,206.328 300.144,200.543 289.044,200.482 L157.695,200.482 C147.649,200.602 138.223,205.36 132.16,213.371 L90.567,268.228 C89.502,269.626 88.006,270.635 86.311,271.098 L16.738,290.107 C7.151,292.745 0.5,301.454 0.482,311.398 L0.482,336.805 C0.482,336.879 0.483,336.953 0.484,337.027 C0.655,349.047 10.537,358.652 22.557,358.482 L27.804,358.482 C30.082,334.482 50.905,314.382 76.185,314.382 C101.465,314.382 122.29,334.482 124.565,358.482 L273.387,358.482 C275.667,334.482 296.486,314.382 321.767,314.382 C347.048,314.382 367.873,334.482 370.148,358.482 L380.407,358.482 C380.481,358.483 380.555,358.484 380.629,358.484 C392.65,358.532 402.434,348.826 402.482,336.805 L402.482,307.804 C402.471,299.145 397.417,291.286 389.543,287.682 Z" id="Path"></path>
            <path d="M167.215875,126.29725 C167.215875,144.97625 182.358875,160.11925 201.037875,160.11925 C219.716875,160.11925 234.859875,144.97625 234.859875,126.29725 C234.859875,107.61825 219.716875,92.47525 201.037875,92.47525 C182.366875,92.49625 167.236875,107.62625 167.215875,126.29725 Z" id="Path"></path>
            <path d="M262.256875,89.37425 C266.674875,89.37425 270.256875,85.79325 270.256875,81.37425 C270.256875,79.25225 269.413875,77.21725 267.913875,75.71725 C230.945875,38.85725 171.122875,38.85725 134.154875,75.71725 C131.030875,78.84125 131.030875,83.90725 134.154875,87.03125 C137.278875,90.15525 142.344875,90.15525 145.468875,87.03125 C176.187875,56.41925 225.879875,56.41925 256.598875,87.03125 C258.097875,88.53425 260.134875,89.37725 262.256875,89.37425 Z" id="Path"></path>
            <path d="M104.656875,55.85225 C157.799875,2.70725 244.273875,2.70725 297.416875,55.85225 C300.541875,58.97625 305.606875,58.97625 308.731875,55.85225 C311.855875,52.72725 311.855875,47.66225 308.731875,44.53725 C249.348875,-14.84575 152.725875,-14.84575 93.343875,44.53725 C90.218875,47.66125 90.218875,52.72725 93.342875,55.85225 C96.466875,58.97625 101.532875,58.97725 104.656875,55.85225 Z" id="Path"></path>
        </g>
    </g>
</svg>